<svg xmlns="http://www.w3.org/2000/svg" viewBox="0 0 640 420" role="img" aria-labelledby="title desc"><title id="title">Ilustração gratuita sobre Direito do Trabalho</title><desc id="desc">Carteira de trabalho, contrato e gráfico de verbas trabalhistas.</desc><defs><linearGradient id="bg" x1="0" x2="1" y1="0" y2="1"><stop stop-color="#05063a"/><stop offset="1" stop-color="#11135d"/></linearGradient><linearGradient id="gold" x1="0" x2="1"><stop stop-color="#c9973a"/><stop offset="1" stop-color="#f3df9e"/></linearGradient></defs><rect width="640" height="420" rx="36" fill="url(#bg)"/><path d="M65 324c83-121 182-177 298-168 84 6 156 47 217 124" fill="none" stroke="#fff" stroke-opacity=".08" stroke-width="56" stroke-linecap="round"/><rect x="78" y="74" width="220" height="276" rx="28" fill="#f3df9e"/><rect x="109" y="111" width="158" height="24" rx="12" fill="#05063a" opacity=".9"/><rect x="109" y="160" width="132" height="12" rx="6" fill="#05063a" opacity=".35"/><rect x="109" y="190" width="156" height="12" rx="6" fill="#05063a" opacity=".35"/><rect x="109" y="220" width="118" height="12" rx="6" fill="#05063a" opacity=".35"/><path d="M188 275c31 0 56 20 56 45H132c0-25 25-45 56-45Z" fill="#05063a" opacity=".88"/><circle cx="188" cy="248" r="30" fill="#05063a" opacity=".88"/><rect x="358" y="104" width="194" height="230" rx="24" fill="#fff" opacity=".12"/><rect x="391" y="267" width="34" height="44" rx="10" fill="url(#gold)"/><rect x="443" y="214" width="34" height="97" rx="10" fill="url(#gold)"/><rect x="495" y="154" width="34" height="157" rx="10" fill="url(#gold)"/><path d="M390 136h120" stroke="#f3df9e" stroke-width="14" stroke-linecap="round"/><path d="M390 172h88" stroke="#fff" stroke-opacity=".48" stroke-width="10" stroke-linecap="round"/></svg>