<svg xmlns="http://www.w3.org/2000/svg" viewBox="0 0 640 420" role="img" aria-labelledby="title desc"><title id="title">Ilustração gratuita sobre Direito do Consumidor</title><desc id="desc">Celular, comprovantes e escudo de proteção do consumidor.</desc><defs><linearGradient id="bg" x1="0" x2="1" y1="0" y2="1"><stop stop-color="#05063a"/><stop offset="1" stop-color="#090b54"/></linearGradient><linearGradient id="gold" x1="0" x2="1"><stop stop-color="#c9973a"/><stop offset="1" stop-color="#f3df9e"/></linearGradient></defs><rect width="640" height="420" rx="36" fill="url(#bg)"/><circle cx="116" cy="82" r="84" fill="#e8c36d" opacity=".14"/><circle cx="536" cy="342" r="98" fill="#fff" opacity=".06"/><rect x="84" y="64" width="194" height="304" rx="34" fill="#fff" opacity=".96"/><rect x="113" y="104" width="136" height="202" rx="18" fill="#05063a" opacity=".9"/><path d="M151 338h60" stroke="#05063a" stroke-width="10" stroke-linecap="round" opacity=".4"/><rect x="134" y="132" width="96" height="16" rx="8" fill="#f3df9e"/><rect x="134" y="168" width="72" height="12" rx="6" fill="#fff" opacity=".45"/><rect x="134" y="194" width="88" height="12" rx="6" fill="#fff" opacity=".35"/><path d="M426 77l116 42v76c0 75-46 130-116 157-70-27-116-82-116-157v-76l116-42Z" fill="url(#gold)"/><path d="M382 204l31 31 67-82" fill="none" stroke="#05063a" stroke-width="22" stroke-linecap="round" stroke-linejoin="round"/><rect x="338" y="306" width="180" height="42" rx="18" fill="#fff" opacity=".15"/><path d="M366 327h124" stroke="#f3df9e" stroke-width="10" stroke-linecap="round"/></svg>