<svg xmlns="http://www.w3.org/2000/svg" viewBox="0 0 640 420" role="img" aria-labelledby="title desc"><title id="title">Ilustração gratuita sobre Direito Previdenciário</title><desc id="desc">Pessoa idosa, documento previdenciário e gráfico de organização.</desc><defs><linearGradient id="bg" x1="0" x2="1" y1="0" y2="1"><stop stop-color="#0a0b45"/><stop offset="1" stop-color="#05063a"/></linearGradient><linearGradient id="gold" x1="0" x2="1"><stop stop-color="#c9973a"/><stop offset="1" stop-color="#f3df9e"/></linearGradient></defs><rect width="640" height="420" rx="36" fill="url(#bg)"/><circle cx="540" cy="76" r="94" fill="#e8c36d" opacity=".15"/><circle cx="96" cy="336" r="110" fill="#fff" opacity=".06"/><rect x="58" y="62" width="250" height="294" rx="24" fill="#fff" opacity=".96"/><rect x="86" y="104" width="160" height="16" rx="8" fill="#05063a" opacity=".82"/><rect x="86" y="142" width="190" height="12" rx="6" fill="#596078" opacity=".45"/><rect x="86" y="170" width="170" height="12" rx="6" fill="#596078" opacity=".35"/><rect x="86" y="218" width="62" height="62" rx="16" fill="url(#gold)"/><path d="M111 250l14 14 31-38" fill="none" stroke="#05063a" stroke-width="10" stroke-linecap="round" stroke-linejoin="round"/><path d="M380 314c22-52 17-99-18-139-24-27-27-65-2-92 25-28 74-25 97 7 24 34 7 81-29 97 49 20 74 62 74 127" fill="none" stroke="#f3df9e" stroke-width="24" stroke-linecap="round"/><circle cx="410" cy="111" r="50" fill="#f3df9e"/><path d="M365 243h146" stroke="#c9973a" stroke-width="20" stroke-linecap="round"/><rect x="348" y="270" width="180" height="62" rx="20" fill="#fff" opacity=".13"/><path d="M378 306h116" stroke="#f3df9e" stroke-width="12" stroke-linecap="round"/><path d="M92 320h168" stroke="#c9973a" stroke-width="12" stroke-linecap="round" opacity=".85"/></svg>